<?xml version="1.0" standalone="no"?>
<!DOCTYPE svg PUBLIC "-//W3C//DTD SVG 20010904//EN"
 "http://www.w3.org/TR/2001/REC-SVG-20010904/DTD/svg10.dtd">
<svg version="1.0" xmlns="http://www.w3.org/2000/svg"
 width="1080.000000pt" height="1080.000000pt" viewBox="0 0 1080.000000 1080.000000"
 preserveAspectRatio="xMidYMid meet">

<g transform="translate(0.000000,1080.000000) scale(0.100000,-0.100000)"
fill="#000000" stroke="none">
<path d="M1763 7282 c-13 -2 -23 -9 -23 -16 0 -7 31 -78 69 -157 38 -79 160
-340 271 -579 294 -632 601 -1291 650 -1395 23 -49 55 -117 70 -150 16 -33 51
-109 80 -170 29 -60 76 -162 105 -225 56 -124 376 -808 469 -1004 31 -65 56
-120 56 -122 0 -1 25 -56 56 -121 31 -65 112 -237 179 -383 68 -146 144 -310
170 -365 26 -55 58 -125 72 -155 14 -30 57 -121 95 -202 38 -81 99 -214 137
-295 48 -106 74 -151 92 -160 35 -18 1338 -19 1361 -1 9 7 43 72 76 143 33 72
97 207 142 300 95 197 163 339 230 480 26 55 104 217 172 360 69 143 143 298
165 345 66 138 370 773 445 930 39 80 85 177 103 215 18 39 63 133 100 210 37
77 87 181 110 230 24 50 80 167 125 260 102 211 176 365 295 615 51 107 133
278 183 380 49 102 105 219 125 260 19 41 92 194 162 340 192 400 197 411 191
426 -5 12 -110 14 -721 14 -394 -1 -726 -5 -738 -9 -17 -7 -41 -52 -96 -182
-41 -96 -85 -196 -97 -224 -18 -40 -510 -1188 -692 -1615 -72 -168 -212 -494
-222 -515 -5 -11 -110 -256 -234 -545 -490 -1145 -473 -1108 -495 -1085 -5 6
-53 114 -106 240 -112 266 -203 478 -250 585 -18 41 -83 194 -145 340 -62 146
-134 315 -160 375 -44 100 -501 1171 -715 1675 -272 637 -397 926 -408 937 -9
9 -195 12 -722 15 -390 2 -720 2 -732 0z"/>
</g>
</svg>
